<mxfile host="app.diagrams.net" modified="2023-11-24T12:44:51.254Z" agent="Mozilla/5.0 (Windows NT 10.0; Win64; x64) AppleWebKit/537.36 (KHTML, like Gecko) Chrome/119.0.0.0 Safari/537.36 Edg/119.0.0.0" version="22.1.3" etag="RuJHb82u8sfjwE62_-5U" type="github">
  <diagram name="StrÃ¡nka-1" id="UNk-M8jYn2nPuT8Spls6">
    <mxGraphModel>
      <root>
        <mxCell id="0" />
        <mxCell id="1" parent="0" />
      </root>
    </mxGraphModel>
  </diagram>
</mxfile>
